<?xml version="1.0" encoding="utf-8"?>
<!-- Generator: Adobe Illustrator 21.0.0, SVG Export Plug-In . SVG Version: 6.00 Build 0)  -->
<svg version="1.0" id="Layer_1" xmlns="http://www.w3.org/2000/svg" xmlns:xlink="http://www.w3.org/1999/xlink" x="0px" y="0px"
	 viewBox="0 0 696.3 696.3" enable-background="new 0 0 696.3 696.3" xml:space="preserve">
<path fill="#F9E4E4" d="M662.7,451.9c-66.6,133.7-244.1,208.6-397.9,188.4c-25-3.3-93.7-13.1-154.5-59.3
	c-117-88.9-142-265-47.6-389.1c68.7-90.3,191.8-141.5,308.8-139c25.2,0.6,121.8,4,206.7,63.6c12.5,8.8,40,29.6,64.8,62.6
	C701.1,256.7,706.1,364.7,662.7,451.9z"/>
<g id="Speech_Bubble">
	<g>
		<g>
			<g>
				<g>
					<rect x="69.5" y="195.2" fill="#FAFAFA" width="101.6" height="182.6"/>
				</g>
				<g>
					<rect x="73.6" y="200.5" fill="#FAFAFA" width="92.5" height="171.9"/>
				</g>
				<g>
					<polygon fill="#FAFAFA" points="166.1,202.5 73.6,320.2 73.6,200.5 166.1,200.5 					"/>
				</g>
				<g>
					<rect x="73.6" y="249.9" fill="#EBEBEB" width="94.5" height="1.8"/>
				</g>
				<g>
					<rect x="73.6" y="290.9" fill="#EBEBEB" width="94.5" height="1.8"/>
				</g>
				<g>
					<rect x="73.6" y="331.8" fill="#EBEBEB" width="94.5" height="1.8"/>
				</g>
				<g>
					<rect x="117.4" y="250.9" fill="#EBEBEB" width="4.7" height="126.4"/>
				</g>
				<g>
					<rect x="91.4" y="200.5" fill="#EBEBEB" width="2.1" height="50.4"/>
				</g>
				<g>
					<rect x="109.6" y="200.5" fill="#EBEBEB" width="2.1" height="50.4"/>
				</g>
				<g>
					<rect x="127.9" y="200.5" fill="#EBEBEB" width="2.1" height="50.4"/>
				</g>
				<g>
					<rect x="146.2" y="200.5" fill="#EBEBEB" width="2.1" height="50.4"/>
				</g>
				<g>
					<rect x="65.2" y="192.1" fill="#E0E0E0" width="4.3" height="186.8"/>
				</g>
				<g>
					<polygon fill="#E0E0E0" points="175.5,379.5 171.2,377.8 171.2,192.1 175.5,192.1 					"/>
				</g>
				<g>
					<rect x="65.2" y="190.2" fill="#E0E0E0" width="110.2" height="5"/>
				</g>
				<g>
					<rect x="62.2" y="380.1" fill="#E0E0E0" width="116.2" height="4.6"/>
				</g>
				<g>
					<polygon fill="#EBEBEB" points="171.2,377.8 178.4,380.1 62.2,380.1 69.5,377.8 					"/>
				</g>
			</g>
			<g>
				<g>
					<g>
						<path fill="#FFFFFF" d="M608.4,309c0,0-7.2-0.5-6.5,15.6s2.3,24.7,2.3,24.7s-0.2,3.6-3,2.9s-8-4.2-10.5-1.6
							c-2.7,2.7-1.7,6.8,1.8,11.7c3.5,4.9,10.9,15.8,11.6,16.8c0.6,1,0.9,2.8-1.1,2.6c-2-0.2-15.2-4.7-17,1.7
							c-1.8,6.4,10.3,18.4,11.6,19.7c1.3,1.3,1.4,2.2,0.8,3c-0.5,0.8-4.8-1.1-8.7-2.2c-3.8-1.1-8.4-1.8-9.1,2
							c-0.7,3.8,4.6,14.9,24.6,26.5l9.6,4.8l9.1-5.8c18.7-13.6,22.9-25.1,21.8-28.8c-1.1-3.7-5.6-2.6-9.3-1.1s-7.8,3.8-8.4,3.1
							c-0.6-0.7-0.6-1.6,0.5-3c1.2-1.5,12-14.6,9.6-20.8c-2.4-6.2-15.1-0.4-17,0s-1.9-1.5-1.3-2.5c0.6-1.1,6.8-12.7,9.8-17.9
							c3-5.2,3.6-9.4,0.6-11.8c-2.8-2.3-7.7,1.7-10.3,2.6c-2.7,1-3.3-2.6-3.3-2.6s0.8-8.7-0.2-24.8s-8.2-14.8-8.2-14.8"/>
					</g>
					<g>
						<g>
							<path fill="#E0E0E0" d="M609,323.5c0,0,0,0.1,0,0.3c0,0.2,0,0.6,0.1,1c0.1,0.9,0.1,2.2,0.3,3.8c0.2,3.3,0.5,8.1,0.8,14
								c0.7,11.8,1.4,28.2,2.2,46.2c0.8,18.1,1.5,34.4,2.1,46.2c0.3,5.9,0.5,10.7,0.7,14c0.1,1.6,0.1,2.9,0.2,3.8c0,0.4,0,0.8,0,1
								s0,0.3,0,0.3s0-0.1,0-0.3c0-0.2,0-0.6-0.1-1c-0.1-0.9-0.1-2.2-0.3-3.8c-0.2-3.3-0.5-8.1-0.8-14c-0.7-11.8-1.4-28.2-2.2-46.2
								c-0.8-18.1-1.5-34.4-2.1-46.2c-0.3-5.9-0.5-10.7-0.7-14c-0.1-1.6-0.1-2.9-0.2-3.8c0-0.4,0-0.8,0-1
								C609,323.6,609,323.5,609,323.5z"/>
						</g>
					</g>
					<g>
						<g>
							<path fill="#E0E0E0" d="M597.7,355.8c0,0,0.2,0.2,0.6,0.5c0.4,0.3,0.9,0.8,1.5,1.5c1.3,1.3,3,3,4.8,5s3.4,3.8,4.7,5.1
								c0.6,0.6,1,1.1,1.4,1.5c0.3,0.4,0.5,0.6,0.5,0.6s-0.2-0.2-0.6-0.5c-0.4-0.3-0.9-0.8-1.5-1.5c-1.3-1.3-2.9-3.1-4.8-5.1
								c-1.8-2-3.5-3.7-4.7-5.1c-0.6-0.6-1-1.1-1.4-1.5C597.9,356,597.7,355.8,597.7,355.8z"/>
						</g>
					</g>
					<g>
						<g>
							
								<ellipse transform="matrix(0.7022 -0.7119 0.7119 0.7022 -72.8984 549.1776)" fill="#E0E0E0" cx="620.1" cy="361.7" rx="11.3" ry="0.2"/>
						</g>
					</g>
					<g>
						<g>
							<path fill="#E0E0E0" d="M612.2,397.5c0,0,0.2-0.2,0.7-0.4c0.5-0.3,1.1-0.6,1.9-1.1c1.6-0.9,3.8-2.1,6.1-3.6
								c2.4-1.4,4.5-2.8,6-3.8c0.7-0.5,1.3-0.9,1.8-1.2c0.4-0.3,0.7-0.4,0.7-0.4s-0.2,0.2-0.6,0.5c-0.4,0.3-1,0.8-1.7,1.3
								c-1.5,1.1-3.6,2.5-5.9,3.9c-2.4,1.5-4.6,2.7-6.2,3.5c-0.8,0.4-1.5,0.7-1.9,1C612.5,397.4,612.2,397.5,612.2,397.5z"/>
						</g>
					</g>
					<g>
						<g>
							<path fill="#E0E0E0" d="M596.3,387.8c0,0,0.2,0.1,0.7,0.3c0.4,0.2,1,0.6,1.7,1c1.5,0.8,3.5,2,5.7,3.3s4.2,2.5,5.6,3.4
								c0.7,0.4,1.3,0.8,1.7,1.1c0.4,0.3,0.6,0.4,0.6,0.4s-0.2-0.1-0.7-0.3c-0.4-0.2-1-0.6-1.7-1c-1.5-0.8-3.5-2-5.7-3.3
								s-4.2-2.5-5.6-3.4c-0.7-0.4-1.3-0.8-1.7-1.1C596.5,388,596.3,387.8,596.3,387.8z"/>
						</g>
					</g>
					<g>
						<g>
							<path fill="#E0E0E0" d="M593.2,412.3c0,0,0.3,0.1,0.8,0.4c0.6,0.3,1.3,0.7,2.2,1.2c1.9,1.1,4.5,2.5,7.3,4.2s5.4,3.2,7.2,4.3
								c0.9,0.5,1.6,1,2.2,1.3c0.5,0.3,0.8,0.5,0.8,0.5s-0.3-0.1-0.8-0.4c-0.6-0.3-1.3-0.7-2.2-1.2c-1.9-1.1-4.5-2.5-7.3-4.2
								s-5.4-3.2-7.2-4.3c-0.9-0.5-1.6-1-2.2-1.3C593.4,412.5,593.1,412.3,593.2,412.3z"/>
						</g>
					</g>
					<g>
						<g>
							<path fill="#E0E0E0" d="M613.3,423.9c0,0,0.3-0.2,0.8-0.6c0.6-0.4,1.4-0.8,2.3-1.4c2-1.2,4.7-2.9,7.6-4.8
								c2.9-1.9,5.6-3.7,7.5-5c0.9-0.6,1.7-1.1,2.2-1.6c0.5-0.4,0.8-0.6,0.8-0.5c0,0-0.3,0.3-0.8,0.7c-0.5,0.4-1.2,1-2.2,1.7
								c-1.9,1.4-4.5,3.2-7.4,5.1s-5.7,3.6-7.7,4.7c-1,0.6-1.8,1-2.4,1.3C613.6,423.7,613.3,423.9,613.3,423.9z"/>
						</g>
					</g>
				</g>
				<g>
					<g>
						<g>
							<polygon fill="#FFFFFF" points="627.7,440.4 601.2,440.4 609.8,505.9 619,505.9 							"/>
						</g>
					</g>
					<g>
						<g>
							<g>
								<path fill="#F5F5F5" d="M602.6,448.5c0,0,0,0.1,0.1,0.2s0.3,0.3,0.6,0.5c0.6,0.3,1.7,0.3,2.8-0.3c1.1-0.6,2-1.8,3.4-2.3
									s3.2-0.4,4.9,0.1s3.2,1.4,4.5,2.2c1.3,0.8,2.6,1.5,3.7,2c1.1,0.5,2.1,0.7,2.7,0.8c0.3,0,0.6,0.1,0.8,0.1s0.3,0,0.3,0
									c0-0.1-1.5-0.1-3.6-1.1c-1.1-0.5-2.3-1.2-3.6-2s-2.9-1.7-4.6-2.3c-1.7-0.6-3.6-0.7-5.1-0.1c-0.8,0.3-1.4,0.7-1.9,1.2
									c-0.5,0.4-1,0.9-1.5,1.2c-1,0.6-2,0.7-2.6,0.4C602.8,448.8,602.6,448.4,602.6,448.5z"/>
							</g>
						</g>
					</g>
					<g>
						<g>
							<g>
								<path fill="#F5F5F5" d="M603.5,460.5c0,0,0.2-0.3,0.6-0.7c0.4-0.4,1.1-1,2.1-1.3c1-0.4,2.3-0.6,3.7-0.6s3,0.4,4.6,0.6
									c1.6,0.3,3.3,0.4,4.7,0.2c1.5-0.2,2.7-0.6,3.7-1.1s1.7-1,2.2-1.3c0.5-0.4,0.7-0.6,0.7-0.6c0-0.1-1.1,0.8-3.1,1.7
									c-1,0.4-2.2,0.8-3.6,0.9c-1.4,0.2-3,0-4.6-0.2c-1.6-0.3-3.2-0.6-4.7-0.6s-2.8,0.2-3.8,0.7c-1,0.4-1.7,1-2.1,1.5
									c-0.2,0.2-0.3,0.4-0.4,0.6C603.5,460.4,603.5,460.5,603.5,460.5z"/>
							</g>
						</g>
					</g>
					<g>
						<g>
							<g>
								<path fill="#F5F5F5" d="M624.7,467c0,0-0.2-0.2-0.7-0.4c-0.5-0.2-1.2-0.4-2.2-0.5s-2.1,0-3.3,0.2s-2.6,0.5-4,0.8
									s-2.7,0.5-4,0.4c-1.2,0-2.3-0.3-3.1-0.7c-1.7-0.7-2.3-1.8-2.4-1.8c0,0,0.1,0.3,0.4,0.7c0.3,0.4,0.9,0.9,1.8,1.4
									c0.9,0.4,2,0.7,3.2,0.8c1.3,0.1,2.6-0.1,4.1-0.4c1.4-0.3,2.7-0.7,3.9-0.9c1.2-0.2,2.3-0.3,3.2-0.3
									C623.6,466.5,624.7,467.1,624.7,467z"/>
							</g>
						</g>
					</g>
					<g>
						<g>
							<g>
								<path fill="#F5F5F5" d="M605.9,476.1c0,0.1,0.9-0.6,2.6-0.3c0.8,0.1,1.7,0.5,2.7,1s2.2,0.9,3.5,1c2.6,0.3,4.9-0.6,6.3-1.5
									c0.7-0.4,1.2-0.9,1.6-1.2c0.3-0.3,0.5-0.5,0.5-0.6c-0.1-0.1-0.8,0.7-2.2,1.5s-3.7,1.5-6.2,1.3c-2.5-0.1-4.4-1.6-6.2-1.8
									c-0.8-0.1-1.6,0-2,0.2C606,475.9,605.9,476.1,605.9,476.1z"/>
							</g>
						</g>
					</g>
					<g>
						<g>
							<g>
								<path fill="#F5F5F5" d="M607.3,488.7c0,0,0.9,0,2.2-0.4s3-1.5,4.9-2.2c1-0.4,1.9-0.6,2.8-0.6c0.9,0,1.7,0.2,2.3,0.5
									c1.2,0.6,1.6,1.5,1.6,1.4c0,0,0-0.2-0.3-0.6c-0.2-0.3-0.6-0.8-1.2-1.1c-0.6-0.4-1.5-0.6-2.4-0.6c-1,0-2,0.2-3,0.6
									c-2,0.8-3.6,1.8-4.9,2.4C608.2,488.5,607.3,488.6,607.3,488.7z"/>
							</g>
						</g>
					</g>
					<g>
						<g>
							<g>
								<path fill="#F5F5F5" d="M608.6,494.5c0,0.1,0.6,0.3,1.7,0.5c1.1,0.3,2.5,0.5,4.2,0.7s3.2,0.2,4.3,0.1s1.8-0.2,1.8-0.2
									c0-0.1-2.7,0-6-0.3S608.7,494.4,608.6,494.5z"/>
							</g>
						</g>
					</g>
				</g>
			</g>
			<g>
				<g>
					<rect x="530.7" y="202.7" fill="#E0E0E0" width="81.9" height="53.9"/>
				</g>
				<g>
					<rect x="533.6" y="204.9" fill="#FAFAFA" width="76.2" height="49.2"/>
				</g>
				<g>
					<rect x="559.3" y="222.9" fill="#E0E0E0" width="24.8" height="13.6"/>
				</g>
			</g>
			<g>
				<g>
					<path fill="#263238" d="M635.7,506.8c0,0.1-131,0.2-292.6,0.2s-292.6-0.1-292.6-0.2s131-0.2,292.6-0.2S635.7,506.7,635.7,506.8
						z"/>
				</g>
			</g>
			<g>
				<g>
					<path fill="#FAFAFA" d="M430.1,344.4H270.9V163.6h175.4v164.6C446.3,337.2,439,344.4,430.1,344.4z"/>
				</g>
				<g>
					<g>
						<g>
							<path fill="#455A64" d="M431.8,217.4c0,0.4-31.7,0.7-70.8,0.7s-70.8-0.3-70.8-0.7s31.7-0.7,70.8-0.7S431.8,217,431.8,217.4z"
								/>
						</g>
					</g>
					<g>
						<g>
							<ellipse fill="#455A64" cx="326.9" cy="229.7" rx="35" ry="0.7"/>
						</g>
					</g>
					<g>
						<g>
							<ellipse fill="#455A64" cx="380.6" cy="228.5" rx="9.3" ry="0.7"/>
						</g>
					</g>
					<g>
						<g>
							<ellipse fill="#455A64" cx="417.2" cy="227.8" rx="18.3" ry="0.7"/>
						</g>
					</g>
					<g>
						<g>
							<ellipse fill="#455A64" cx="323.1" cy="241.4" rx="32.9" ry="0.7"/>
						</g>
					</g>
					<g>
						<g>
							<ellipse fill="#455A64" cx="399.7" cy="241" rx="35.9" ry="0.7"/>
						</g>
					</g>
					<g>
						<g>
							<ellipse fill="#455A64" cx="419.6" cy="252.8" rx="16" ry="0.7"/>
						</g>
					</g>
				</g>
				<g>
					<g>
						<ellipse fill="#E8505B" cx="330.6" cy="204.3" rx="38.8" ry="0.7"/>
					</g>
				</g>
			</g>
			<g>
				<g>
					<g>
						<g>
							<g>
								<g>
									<g>
										<path fill="#263238" d="M475.1,505.8H139.8c-8,0-14.6-6.5-14.6-14.6V279.4c0-8,6.5-14.6,14.6-14.6H475
											c8,0,14.6,6.5,14.6,14.6v211.8C489.6,499.3,483.1,505.8,475.1,505.8z"/>
									</g>
								</g>
							</g>
							<g>
								<g>
									<g>
										<path fill="#263238" d="M487.5,509.1H128.3c-9.8,0-17.8-8-17.8-17.8V488h394.8v3.3C505.3,501.1,497.3,509.1,487.5,509.1z"
											/>
									</g>
								</g>
							</g>
							<g>
								<g>
									<g>
										<rect x="135.5" y="274.4" fill="#455A64" width="343.8" height="203.5"/>
									</g>
								</g>
							</g>
							<g>
								<g>
									<g>
										<g>
											<path fill="#455A64" d="M272,488c0,0,0.1,0,0.4,0s0.7,0,1.2,0c1,0,2.6,0,4.5,0c3.9,0,9.6,0,16.7-0.1
												c14.2,0,33.8-0.1,55.7-0.1h0.4l-0.2,0.4c-0.7,1.2-1.5,2.5-2.2,3.8c-0.8,1.4-1.6,2.7-2.3,4l-0.1,0.1H346
												c-30.3-0.1-56.2-0.1-68.9-0.1H277l0,0c-1.6-2.6-2.8-4.5-3.6-5.9c-0.4-0.6-0.7-1.1-0.9-1.5C272.1,488.2,272,488,272,488
												s0.1,0.2,0.3,0.5c0.2,0.4,0.5,0.8,1,1.5c0.8,1.3,2.1,3.2,3.7,5.7h-0.1c12.8,0,38.6-0.1,68.9-0.1l-0.2,0.1
												c0.8-1.3,1.5-2.6,2.3-4c0.8-1.3,1.5-2.6,2.2-3.8l0.2,0.4c-21.8,0-41.3-0.1-55.5-0.1c-7.1,0-12.8-0.1-16.7-0.1
												c-2,0-3.5,0-4.6,0c-0.5,0-0.9,0-1.2,0C272.2,488,272,488,272,488z"/>
										</g>
									</g>
								</g>
							</g>
						</g>
					</g>
				</g>
				<g>
					<g>
						<g>
							<path fill="#455A64" d="M489.6,488c0,0.1-81.6,0.2-182.2,0.2s-182.2-0.1-182.2-0.2s81.6-0.2,182.2-0.2S489.6,487.9,489.6,488
								z"/>
						</g>
					</g>
				</g>
			</g>
			<g>
				<g>
					<path fill="#263238" d="M396.6,233.8L396.6,233.8c5.6,0,10.2,4.6,10.2,10.2v20.9h-30.4v-19.3c0-6.5,5.3-11.8,11.8-11.8
						L396.6,233.8L396.6,233.8z"/>
				</g>
				<g>
					<g>
						<path fill="#263238" d="M396.6,233.8c0,0.1-28.7,0.2-64.1,0.2s-64.1-0.2-64.1-0.3s28.7-0.2,64.1-0.2
							C367.9,233.6,396.6,233.7,396.6,233.8z"/>
					</g>
				</g>
				<g>
					<path fill="#FAFAFA" d="M396.4,233.8l-12.7-0.1l-18.4,0.1H229.8c-11.5,0-20.8,9.3-20.8,20.8v220v3.8h175.4V245.2
						C384.9,233.8,396.4,233.8,396.4,233.8z"/>
				</g>
				<g>
					<path fill="#263238" d="M396.4,233.8L290.6,234h-52.9h-6.6c-1.1,0-2.2,0-3.3,0.1c-1.1,0.2-2.2,0.3-3.2,0.6
						c-4.2,1-8,3.6-10.8,6.9c-1.4,1.7-2.4,3.6-3.2,5.6c-0.2,0.5-0.4,1-0.5,1.5l-0.4,1.6c-0.2,1.1-0.4,2.1-0.4,3.2
						c-0.1,4.4,0,8.8,0,13.2l0.1,211.5l-0.4-0.4l175.4,0.1l-0.3,0.3l0.1-125.8l0.1-62.9l0.1-31.4v-7.9v-3.9c0-0.7,0-1.3,0.1-2
						s0.1-1.3,0.3-1.9c0.6-2.5,2-4.9,4.2-6.4c1.1-0.8,2.3-1.3,3.5-1.7C393.8,234.1,395.1,233.8,396.4,233.8z M396.4,233.8
						c-1.3,0-2.6,0.3-3.9,0.7s-2.4,1-3.5,1.7c-2.2,1.5-3.6,3.9-4.2,6.4c-0.2,0.6-0.2,1.3-0.3,1.9c-0.1,0.6-0.1,1.3-0.1,2v3.9v7.9
						l0.1,31.5l0.1,62.8l0.1,125.8v0.3h-0.3L209,478.8h-0.4v-0.4l0.1-211.5c0-4.4,0-8.8,0.1-13.2c0-1.1,0.2-2.2,0.4-3.3l0.4-1.6
						c0.1-0.5,0.4-1.1,0.5-1.6c0.8-2.1,1.9-4,3.3-5.8c2.8-3.4,6.7-6,11.1-7.1c1.1-0.3,2.2-0.4,3.3-0.6c1.1-0.1,2.2-0.1,3.3-0.1h6.6
						h52.9L396.4,233.8z"/>
				</g>
				<g>
					<path fill="#E8505B" d="M235.4,274.1H266v10.3h-1.4c-0.5-3.7-1.9-6.1-4.1-7.4c-1.3-0.7-3.2-1.1-5.7-1.2v26.8
						c0,1.9,0.3,3.1,1,3.7s2,0.9,4.1,0.9v1.3h-18.1v-1.3c2,0,3.3-0.3,4-0.9s1-1.9,1-3.7v-26.8c-2.5,0.1-4.4,0.5-5.7,1.2
						c-2.4,1.3-3.8,3.8-4.1,7.4h-1.5L235.4,274.1z"/>
				</g>
				<g>
					<g>
						<ellipse fill="#E8505B" cx="322.6" cy="276.4" rx="37.7" ry="0.7"/>
					</g>
				</g>
				<g>
					<g>
						<ellipse fill="#455A64" cx="301" cy="288.4" rx="14.6" ry="0.7"/>
					</g>
				</g>
				<g>
					<g>
						<ellipse fill="#455A64" cx="251.1" cy="325.2" rx="27.7" ry="0.7"/>
					</g>
				</g>
				<g>
					<g>
						<ellipse fill="#E8505B" cx="313.8" cy="325.2" rx="27.7" ry="0.7"/>
					</g>
				</g>
				<g>
					<g>
						<ellipse fill="#455A64" cx="251.1" cy="335" rx="27.7" ry="0.7"/>
					</g>
				</g>
				<g>
					<g>
						<ellipse fill="#E8505B" cx="251.1" cy="344.8" rx="27.7" ry="0.7"/>
					</g>
				</g>
				<g>
					<g>
						<ellipse fill="#455A64" cx="301" cy="308.4" rx="14.6" ry="0.7"/>
					</g>
				</g>
				<g>
					<g>
						<ellipse fill="#455A64" cx="356.4" cy="325.2" rx="9.7" ry="0.7"/>
					</g>
				</g>
				<g>
					<g>
						<ellipse fill="#455A64" cx="346.3" cy="288.4" rx="25" ry="0.7"/>
					</g>
				</g>
				<g>
					<g>
						<path fill="#455A64" d="M369.1,298c0,0.4-18.5,0.7-41.3,0.7s-41.3-0.3-41.3-0.7c0-0.4,18.5-0.7,41.3-0.7
							S369.1,297.6,369.1,298z"/>
					</g>
				</g>
				<g>
					<g>
						<ellipse fill="#455A64" cx="326.1" cy="335" rx="40" ry="0.7"/>
					</g>
				</g>
				<g>
					<g>
						<ellipse fill="#E8505B" cx="328.6" cy="363.4" rx="37.5" ry="0.7"/>
					</g>
				</g>
				<g>
					<g>
						<ellipse fill="#455A64" cx="328.6" cy="373" rx="37.5" ry="0.7"/>
					</g>
				</g>
				<g>
					<g>
						<ellipse fill="#455A64" cx="328.6" cy="382.5" rx="37.5" ry="0.7"/>
					</g>
				</g>
				<g>
					<g>
						<ellipse fill="#455A64" cx="328.6" cy="392.1" rx="37.5" ry="0.7"/>
					</g>
				</g>
				<g>
					<g>
						<path fill="#455A64" d="M334.3,401.6c0,0.2-2.4,0.3-6.3,0.5c-3.9,0.1-9.3,0.2-15.3,0.2s-11.4-0.1-15.3-0.2s-6.3-0.3-6.3-0.5
							s2.4-0.3,6.3-0.5c3.9-0.1,9.3-0.2,15.3-0.2s11.4,0.1,15.3,0.2C331.9,401.3,334.3,401.5,334.3,401.6z"/>
					</g>
				</g>
				<g>
					<g>
						<ellipse fill="#455A64" cx="320.2" cy="345.3" rx="32.3" ry="0.7"/>
					</g>
				</g>
				<g>
					<g>
						<g>
							<g>
								<polygon fill="#E0E0E0" points="277.5,364.5 281.5,438.2 209.4,447.3 209.3,363.9 								"/>
							</g>
						</g>
					</g>
					<g>
						<g>
							<g>
								
									<rect x="193.8" y="349.8" transform="matrix(6.424198e-03 -1 1 6.424198e-03 -167.3793 629.0964)" fill="#F5F5F5" width="78.2" height="97.9"/>
							</g>
						</g>
					</g>
					<g>
						
							<rect x="198.5" y="353.3" transform="matrix(6.423722e-03 -1 1 6.423722e-03 -167.5712 628.9481)" fill="#E8505B" width="68.4" height="91"/>
					</g>
					<g opacity="0.2">
						<polygon points="187,432.7 219.1,390.4 238.6,417.1 252,403 278,433.3 						"/>
					</g>
					<g opacity="0.2">
						<g>
							<g>
								<ellipse transform="matrix(6.424901e-03 -1 1 6.424901e-03 -147.0173 622.7338)" cx="239.9" cy="385.3" rx="7.2" ry="7.2"/>
							</g>
						</g>
					</g>
				</g>
				<g>
					<g>
						<circle fill="#263238" cx="289.4" cy="456.7" r="1.5"/>
					</g>
					<g>
						<circle fill="#263238" cx="298.4" cy="456.7" r="1.5"/>
					</g>
					<g>
						<circle fill="#263238" cx="307.3" cy="456.7" r="1.5"/>
					</g>
				</g>
				<g>
					<g>
						<ellipse fill="#E8505B" cx="314.2" cy="421.5" rx="27.7" ry="0.7"/>
					</g>
				</g>
				<g>
					<g>
						<ellipse fill="#455A64" cx="326.6" cy="431.4" rx="40" ry="0.7"/>
					</g>
				</g>
			</g>
			<g>
				<g>
					<g>
						<g>
							<g>
								
									<rect x="548.3" y="441.9" transform="matrix(6.422860e-03 -1 1 6.422860e-03 96.7778 1040.1869)" fill="#F5F5F5" width="47.1" height="58.9"/>
							</g>
						</g>
					</g>
					
						<rect x="551.3" y="444.1" transform="matrix(6.424013e-03 -1 1 6.424013e-03 96.7303 1040.285)" fill="#E8505B" width="41.2" height="54.8"/>
					<polygon opacity="0.2" enable-background="new    " points="544.3,491.9 563.6,466.4 575.4,482.5 583.5,474 599.1,492.2 					
						"/>
					<g opacity="0.2">
						<g>
							<ellipse transform="matrix(6.431255e-03 -1 1 6.431255e-03 109.1303 1036.5004)" cx="576.2" cy="463.3" rx="4.3" ry="4.3"/>
						</g>
					</g>
				</g>
				<g>
					<g>
						<g>
							<g>
								
									<rect x="539.7" y="437" transform="matrix(6.424395e-03 -1 1 6.424395e-03 93.2043 1026.7006)" fill="#F5F5F5" width="47.1" height="58.9"/>
							</g>
						</g>
					</g>
					
						<rect x="542.5" y="439.1" transform="matrix(6.424013e-03 -1 1 6.424013e-03 92.9615 1026.6007)" fill="#E8505B" width="41.2" height="54.8"/>
					<polygon opacity="0.2" enable-background="new    " points="535.7,487 555,461.5 566.7,477.6 574.8,469.1 590.5,487.3 					"/>
					<g opacity="0.2">
						<g>
							<ellipse transform="matrix(6.421472e-03 -1 1 6.421472e-03 105.5636 1023.0212)" cx="567.6" cy="458.4" rx="4.3" ry="4.3"/>
						</g>
					</g>
				</g>
				<g>
					<g>
						<g>
							<g>
								
									<rect x="531.9" y="433" transform="matrix(6.422849e-03 -1 1 6.422849e-03 89.4466 1014.9911)" fill="#F5F5F5" width="47.1" height="58.9"/>
							</g>
						</g>
					</g>
					
						<rect x="534.9" y="435.1" transform="matrix(6.422465e-03 -1 1 6.422465e-03 89.4995 1014.9922)" fill="#E8505B" width="41.2" height="54.8"/>
					<polygon opacity="0.2" enable-background="new    " points="528,482.9 547.3,457.4 559,473.5 567.1,465 582.8,483.3 					"/>
					<g opacity="0.2">
						<g>
							<ellipse transform="matrix(6.431255e-03 -1 1 6.431255e-03 102.0982 1011.209)" cx="559.9" cy="454.2" rx="4.3" ry="4.3"/>
						</g>
					</g>
				</g>
				<g>
					<g>
						<g>
							<g>
								
									<rect x="523.3" y="438.1" transform="matrix(6.422860e-03 -1 1 6.422860e-03 75.777 1011.4119)" fill="#F5F5F5" width="47.1" height="58.9"/>
							</g>
						</g>
					</g>
					
						<rect x="526.2" y="440.1" transform="matrix(6.422463e-03 -1 1 6.422463e-03 75.7316 1011.3141)" fill="#455A64" width="41.2" height="54.8"/>
					<polygon opacity="0.2" enable-background="new    " points="519.3,488 538.6,462.5 550.4,478.6 558.5,470.1 574.1,488.3 					
						"/>
					<g opacity="0.2">
						<g>
							<ellipse transform="matrix(6.421472e-03 -1 1 6.421472e-03 88.2349 1007.6338)" cx="551.2" cy="459.4" rx="4.3" ry="4.3"/>
						</g>
					</g>
				</g>
				<g>
					<rect x="576.5" y="461.3" fill="#263238" width="34" height="45.5"/>
					<path fill="#E8505B" d="M511.3,461.3v45.5h68.1v-45.5H511.3z M552.6,472.1h-14.5c-1.7,0-3.1-1.4-3.1-3.1s1.4-3.1,3.1-3.1h14.5
						c1.7,0,3.1,1.4,3.1,3.1S554.3,472.1,552.6,472.1z"/>
				</g>
			</g>
			<g>
				<g>
					<g>
						<g>
							<path fill="#455A64" d="M467.2,502.1l-63.3-3.9c-0.4-0.9-0.7-1.4-0.7-1.4l-17.2,0.3l-5.6-0.3c0,0-0.1,0.2-0.2,0.5l-57.6,1.1
								c-11.5,0-23.5,7-23.5,16c-0.1,8.5,4,17.8,14.3,17.6l78.5-0.3l78.5,0.3c10.3,0.2,13-6,13-13.4
								C484.6,504.8,476,502.2,467.2,502.1z"/>
						</g>
						<g>
							<g>
								<path fill="#263238" d="M320.6,531.9c0,0,0.1,0,0.4,0s0.6,0,1.1,0c1,0,2.4,0,4.3,0c3.7,0,9.1,0,15.8-0.1
									c13.4,0,31.9,0,52.7-0.1l-0.2,0.2c-0.1-1.7-0.2-3.6-0.3-5.4c-0.2-3.8-0.5-7.5-0.7-11.1l0.2,0.2c-19.3-2.1-36.3-4-48.5-5.4
									c-6.1-0.7-11-1.3-14.4-1.6c-1.7-0.2-3-0.4-3.9-0.5c-0.4-0.1-0.8-0.1-1-0.1s-0.3-0.1-0.3-0.1s0.1,0,0.3,0
									c0.2,0,0.6,0.1,1,0.1c0.9,0.1,2.2,0.2,3.9,0.4c3.4,0.4,8.3,0.9,14.4,1.5c12.2,1.3,29.3,3.2,48.5,5.3h0.2v0.2
									c0.2,3.6,0.5,7.3,0.7,11.1c0.1,1.9,0.2,3.7,0.3,5.4v0.2h-0.2c-20.7,0-39.3-0.1-52.7-0.1c-6.7,0-12-0.1-15.8-0.1
									c-1.8,0-3.3,0-4.3,0c-0.5,0-0.8,0-1.1,0C320.8,531.9,320.6,531.9,320.6,531.9z"/>
							</g>
						</g>
						<g>
							<g>
								<path fill="#263238" d="M336.8,509.4c0,0.1-0.8-0.6-2.2-1.4c-1.4-0.8-3.4-1.8-5.8-2.5s-4.6-0.9-6.2-0.9s-2.6,0.1-2.6,0
									c0,0,0.2-0.1,0.7-0.2s1.1-0.1,1.9-0.2c1.6-0.1,3.9,0.1,6.4,0.8c2.4,0.7,4.5,1.8,5.8,2.7c0.7,0.5,1.2,0.9,1.5,1.2
									C336.6,509.2,336.8,509.3,336.8,509.4z"/>
							</g>
						</g>
						<g>
							<g>
								
									<ellipse transform="matrix(0.9738 -0.2275 0.2275 0.9738 -105.2029 112.265)" fill="#263238" cx="434.4" cy="512.5" rx="28.7" ry="0.2"/>
							</g>
						</g>
						<g>
							<g>
								<path fill="#263238" d="M451.7,504.8c0,0.1-2.4,0.6-4.9,2.3s-3.9,3.8-4,3.7c0,0,0.2-0.6,0.9-1.4c0.6-0.8,1.6-1.8,2.9-2.7
									s2.6-1.4,3.5-1.7C451.1,504.8,451.7,504.7,451.7,504.8z"/>
							</g>
						</g>
					</g>
					<g>
						<path fill="#FFBE9D" d="M428.2,432.9l20,34.9c2.5,4.3,2.6,9.6,0.4,14l0,0c-2.6,5.2-7.9,8.4-13.7,8.2l-30.8-0.9l-0.8-11.2
							l27.1-5.2l-18.3-31.6L428.2,432.9z"/>
					</g>
					<g>
						<path fill="#FFBE9D" d="M353.5,492.6l28.3,7.5l0.6-8.5l-26.1-15.2l19.1-35.4l-16-8.2l-20,34.9l0,0c-4.9,9-0.3,20.2,9.4,23.3
							L353.5,492.6z"/>
					</g>
					<g>
						<path fill="#E8505B" d="M419.7,455.3l19.3-10.2c0,0-3.2-6.8-8.3-13.8c-6-8.3-15.3-14.1-25.8-16.3l0,0l-22.3,0.3
							c-3.2,0.3-5.8,0.9-7.9,1.8V417c-12.1,2.7-25.5,29-25.5,29l17.6,9.3l0.4,2.8c0.5,3.6,2.1,7.1,4.6,9.9l-5.1,33.7l57.1,1.2
							l-7.3-24.1L419.7,455.3z"/>
					</g>
					<g>
						<g>
							<path fill="#263238" d="M372.3,468.1c0,0-0.3-0.2-0.9-0.6c-0.5-0.4-1.2-1.2-1.9-2.2c-1.4-2-2.7-5.4-2.4-9.2
								c0.3-1.9,0.8-3.6,1.3-5.1s1-2.9,1.5-4s0.8-2,1.1-2.7c0.3-0.6,0.5-1,0.5-0.9c0,0-0.1,0.4-0.3,1c-0.3,0.7-0.6,1.6-1,2.7
								s-0.9,2.5-1.4,4.1c-0.5,1.5-1,3.2-1.3,5.1c-0.2,1.8,0.1,3.6,0.5,5.1s1.1,2.8,1.7,3.8C371.1,467.1,372.4,468.1,372.3,468.1z"
								/>
						</g>
					</g>
					<g>
						<g>
							<polygon fill="#263238" points="363.8,509.8 360.5,472.2 430.1,472.2 425.5,510.3 							"/>
						</g>
						<g>
							<circle fill="#FAFAFA" cx="395.3" cy="492.3" r="4.4"/>
						</g>
					</g>
					<g>
						<g>
							<polygon fill="#FFBE9D" points="394.1,517.1 405.9,518.8 405.9,531.6 395.1,531.4 							"/>
						</g>
						<g>
							<g>
								<path fill="#E8505B" d="M405.9,518.8h5.3c1,0,2,0.3,2.9,0.8l2.8,1.6c0.9,0.5,3.9,2,4.9,2.3c3.2,1,8.7,2.4,9.8,3.3
									c3.3,2.5,2.3,5.5,0.5,5.8c-1.6,0.3-26.2-1-26.2-1L405.9,518.8L405.9,518.8z"/>
							</g>
							<g>
								<g>
									<path fill="#263238" d="M414.7,530.6c-0.1,0-0.5-1.5-0.6-3.3c-0.1-1.9,0.3-3.4,0.4-3.4s0,1.5,0.1,3.4
										C414.6,529.1,414.8,530.6,414.7,530.6z"/>
								</g>
							</g>
							<g>
								<g>
									
										<ellipse transform="matrix(7.970462e-03 -1 1 7.970462e-03 -113.5597 940.3343)" fill="#263238" cx="417.1" cy="527.4" rx="3.1" ry="0.2"/>
								</g>
							</g>
							<g>
								<g>
									
										<ellipse transform="matrix(0.997 -7.774909e-02 7.774909e-02 0.997 -39.7738 34.2457)" fill="#263238" cx="419.9" cy="527.9" rx="0.2" ry="3.2"/>
								</g>
							</g>
							<g>
								<g>
									<path fill="#263238" d="M412.4,527.2c0,0-0.4-0.1-1.1-0.3c-0.7-0.3-1.6-0.8-2.7-1.6c-0.3-0.2-0.5-0.5-0.8-0.7
										c-0.2-0.3-0.5-0.6-0.7-1s-0.2-0.9,0.1-1.3c0.2-0.2,0.4-0.3,0.7-0.4c0.3,0,0.5,0,0.7,0.1c1.7,0.6,3.2,2.3,3.5,4.4
										c0.3,2.1-0.9,4.1-2.4,5c-0.4,0.2-0.8,0.5-1.2,0.5c-0.2,0-0.5,0-0.7,0c-0.2-0.1-0.4-0.3-0.5-0.5c-0.2-0.5,0-0.9,0.2-1.2
										s0.4-0.6,0.7-0.8c1-0.9,1.9-1.4,2.6-1.7s1.1-0.3,1.1-0.3s-0.4,0.2-1,0.5s-1.6,0.9-2.5,1.8c-0.2,0.2-0.5,0.5-0.6,0.8
										c-0.2,0.3-0.3,0.6-0.1,0.9c0.1,0.3,0.5,0.4,0.8,0.3c0.4-0.1,0.7-0.3,1.1-0.5c1.4-0.9,2.4-2.7,2.1-4.7
										c-0.2-1.9-1.6-3.5-3.2-4c-0.4-0.1-0.8-0.1-1,0.1s-0.2,0.6-0.1,0.9c0.3,0.6,0.8,1.1,1.3,1.6
										C410.8,526.7,412.4,527.1,412.4,527.2z"/>
								</g>
							</g>
						</g>
						<g>
							<g>
								<path fill="#263238" d="M432.2,532.7c0,0,0.4-0.2,0.6-0.8c0.3-0.6,0.2-1.6-0.3-2.7c-0.6-1-1.8-1.9-3.3-2.5
									c-1.5-0.5-3.3-0.8-5.1-1.4c-3.6-1.1-6.7-2.7-8.8-4c-1-0.7-1.8-1.3-2.4-1.7c-0.5-0.4-0.8-0.7-0.8-0.7s0.3,0.2,0.9,0.6
									c0.6,0.4,1.4,0.9,2.5,1.6c2.1,1.3,5.2,2.8,8.7,3.8c1.8,0.6,3.6,0.8,5.1,1.4c1.6,0.6,2.8,1.6,3.4,2.7s0.6,2.3,0.2,2.9
									c-0.2,0.3-0.4,0.5-0.5,0.6C432.3,532.6,432.2,532.7,432.2,532.7z"/>
							</g>
						</g>
					</g>
					<g>
						<g>
							<path fill="#F5F5F5" d="M424.1,424.3c0,0,0,0.1,0,0.2s0,0.3,0,0.5c0,0.5-0.1,1.2-0.2,2.1c-0.2,1.8-0.4,4.4-0.8,7.7v0.2
								l-0.2-0.1c-2.8-1.5-6.3-3.3-10.3-5.4l0.2-0.1c-1.7,2.9-3.6,6-5.6,9.4l-0.1,0.2l-0.2-0.1c-2.9-2.2-6.1-4.7-9.4-7.2h0.3
								c-1.3,1-2.7,2.1-4.1,3.2c-1.9,1.5-3.8,2.9-5.6,4.4l-0.2,0.2l-0.1-0.2c-1.9-3.4-3.6-6.7-5.3-9.8l0.3,0.1
								c-4.1,1.8-7.9,3.5-11.3,5l-0.2,0.1v-0.2c-0.7-3.9-1.2-7.2-1.7-10l0.2,0.1c-2.7,1-4.9,1.9-6.4,2.5c-0.7,0.3-1.3,0.5-1.7,0.6
								c-0.2,0.1-0.3,0.1-0.4,0.2c-0.1,0-0.2,0-0.2,0s0,0,0.1-0.1s0.3-0.1,0.4-0.2c0.4-0.2,1-0.4,1.7-0.7c1.5-0.6,3.7-1.5,6.4-2.6
								l0.1-0.1v0.2c0.5,2.8,1.1,6.1,1.8,10l-0.2-0.1c3.4-1.5,7.2-3.2,11.2-5.1l0.2-0.1l0.1,0.2c1.7,3.1,3.5,6.4,5.3,9.8l-0.3-0.1
								c1.8-1.4,3.7-2.9,5.6-4.4c1.4-1.1,2.8-2.2,4.1-3.2l0.1-0.1l0.1,0.1c3.3,2.5,6.4,5,9.4,7.2l-0.3,0.1c2-3.4,3.9-6.5,5.6-9.4
								l0.1-0.2l0.2,0.1c3.9,2.1,7.4,4,10.2,5.5l-0.2,0.1c0.4-3.3,0.7-5.9,0.9-7.7c0.1-0.9,0.2-1.6,0.3-2c0-0.2,0.1-0.4,0.1-0.5
								C424.1,424.3,424.1,424.3,424.1,424.3z"/>
						</g>
					</g>
					<g>
						<g>
							<path fill="#F5F5F5" d="M432.4,433.7c0,0,0,0.1,0,0.2c0,0.2-0.1,0.4-0.2,0.7c-0.2,0.7-0.4,1.6-0.7,2.8
								c-0.7,2.4-1.6,6-2.8,10.3v0.2l-0.2-0.1c-3.4-1.6-7.5-3.6-12-5.8l0.2-0.1c-3.1,4.4-6.5,9.2-10.1,14.4l-0.1,0.2l-0.2-0.2
								c-3.1-3.1-6.3-6.4-9.7-9.8c-0.7-0.7-1.4-1.4-2-2.1h0.3c-4.6,2.9-8.9,5.6-13.1,8.2l-0.2,0.1l-0.1-0.2
								c-2.5-4.5-4.9-8.6-7.1-12.5l0.2,0.1c-5.2,1.8-9.7,3.3-13.4,4.6h-0.1v-0.1c-1.3-3.7-2.3-6.6-3-8.7c-0.3-1-0.6-1.8-0.8-2.3
								c-0.1-0.2-0.1-0.4-0.2-0.6c0-0.1-0.1-0.2-0.1-0.2s0,0.1,0.1,0.2c0.1,0.2,0.1,0.3,0.2,0.6c0.2,0.5,0.5,1.3,0.8,2.3
								c0.7,2,1.8,4.9,3.1,8.6l-0.2-0.1c3.7-1.3,8.3-2.9,13.4-4.7l0.1-0.1l0.1,0.1c2.2,3.8,4.6,8,7.1,12.4l-0.3-0.1
								c4.1-2.6,8.5-5.4,13.1-8.2l0.2-0.1l0.1,0.1c0.7,0.7,1.4,1.4,2,2.1c3.4,3.4,6.6,6.7,9.7,9.8h-0.3c3.6-5.2,7.1-10,10.1-14.4
								l0.1-0.1l0.1,0.1c4.5,2.2,8.6,4.2,12,5.8l-0.2,0.1c1.2-4.4,2.2-7.9,2.9-10.3c0.3-1.2,0.6-2.1,0.8-2.8
								c0.1-0.3,0.2-0.5,0.2-0.7C432.4,433.8,432.4,433.7,432.4,433.7z"/>
						</g>
					</g>
				</g>
				<g>
					<g>
						<path fill="#263238" d="M423.8,374.4c-3.4,0.4-6.9-0.7-9.5-3c3.1,1.6,7.2-0.6,8.3-3.9c1.1-3.3,0.2-9.4-2.5-11.6
							c-2.6-2.1-6.1-2.9-9.3-2c-3.2,0.9-6.6,5.7-7.6,8.8l0.1,0.1c-0.5-0.2-1-0.4-1.5-0.5c-3.5-1.2-7.3-1.8-11-1.3
							c-3.7,0.4-7.3,1.9-10.1,4.4l21.6,34.7c3.9-0.3,7.4-3,9.5-6.4s2.8-7.4,3-11.3c0-1,0-2,0-3c2.3,0.4,4.6,0.7,7,1.1
							c-1.2-1.7-2.8-3.1-4.6-4.1C419.5,377.4,422.4,376.5,423.8,374.4z"/>
					</g>
					<g>
						<g>
							<g>
								<g>
									<g>
										<g>
											<g>
												<g>
													<g>
														<g>
															<g>
																<g>
																	<g>
																		<path fill="#FFBE9D" d="M396.5,428.3c5.9-0.1,10.6-4.9,10.6-10.7l0.5-43.2l0,0c0-1.8-1.3-3.3-3.1-3.5l-18.3-4.6
																			c-5.8-0.6-9.7,6.6-10.1,12.4c-0.4,6.5-0.7,14.5,0.1,19.4c1.6,9.8,9,11,9,11s0,3.8,0,8.4
																			C385.4,423.6,390.4,428.5,396.5,428.3L396.5,428.3z"/>
																	</g>
																</g>
															</g>
														</g>
													</g>
													<g>
														<g>
															<g>
																<g>
																	<g>
																		<g>
																			<path fill="#263238" d="M380,385.1c0,0.7,0.5,1.2,1.2,1.3c0.7,0,1.3-0.5,1.3-1.1c0-0.7-0.5-1.2-1.2-1.3
																				C380.6,383.9,380,384.4,380,385.1z"/>
																		</g>
																	</g>
																</g>
															</g>
														</g>
														<g>
															<g>
																<g>
																	<g>
																		<g>
																			<g>
																				<path fill="#263238" d="M377.9,382.9c0.2,0.2,1.1-0.5,2.5-0.5c1.3,0,2.3,0.7,2.5,0.5c0.1-0.1-0.1-0.4-0.5-0.7
																					c-0.4-0.3-1.1-0.6-2-0.6c-0.8,0-1.5,0.3-2,0.6C378,382.5,377.9,382.8,377.9,382.9z"/>
																			</g>
																		</g>
																	</g>
																</g>
															</g>
														</g>
													</g>
													<g>
														<g>
															<g>
																<g>
																	<g>
																		<g>
																			<path fill="#263238" d="M392.8,385.1c0,0.7,0.5,1.2,1.2,1.3c0.7,0,1.3-0.5,1.3-1.1c0-0.7-0.5-1.2-1.2-1.3
																				C393.4,383.9,392.9,384.4,392.8,385.1z"/>
																		</g>
																	</g>
																</g>
															</g>
														</g>
														<g>
															<g>
																<g>
																	<g>
																		<g>
																			<g>
																				<path fill="#263238" d="M391.2,383.1c0.2,0.2,1.1-0.5,2.5-0.5c1.3,0,2.3,0.7,2.5,0.5c0.1-0.1-0.1-0.4-0.5-0.7
																					c-0.4-0.3-1.1-0.6-2-0.6c-0.8,0-1.5,0.3-2,0.6C391.3,382.8,391.1,383.1,391.2,383.1z"/>
																			</g>
																		</g>
																	</g>
																</g>
															</g>
														</g>
													</g>
													<g>
														<g>
															<g>
																<g>
																	<g>
																		<g>
																			<path fill="#263238" d="M386.3,393.1c0-0.1-0.8-0.2-2.2-0.4c-0.3,0-0.7-0.1-0.7-0.3c-0.1-0.2,0.1-0.6,0.2-1
																				c0.3-0.8,0.7-1.7,1-2.6c1.4-3.7,2.4-6.8,2.3-6.9c-0.2-0.1-1.4,2.9-2.8,6.7c-0.3,0.9-0.7,1.8-1,2.6
																				c-0.1,0.4-0.4,0.8-0.2,1.4c0.1,0.3,0.3,0.4,0.6,0.5c0.2,0.1,0.4,0.1,0.6,0.1
																				C385.5,393.2,386.3,393.2,386.3,393.1z"/>
																		</g>
																	</g>
																</g>
															</g>
														</g>
													</g>
													<g>
														<g>
															<g>
																<g>
																	<g>
																		<path fill="#EB996E" d="M385.4,409.1c0,0,6.6,0.4,13.1-3.5c0,0-3.2,6.7-13,5.8L385.4,409.1z"/>
																	</g>
																</g>
															</g>
														</g>
													</g>
													<g>
														<g>
															<g>
																<g>
																	<g>
																		<path fill="#EB996E" d="M386.9,396.4c0.5-0.6,1.3-1,2.2-0.9c0.6,0.1,1.2,0.3,1.5,0.8c0.4,0.5,0.4,1.2,0.1,1.6
																			c-0.4,0.5-1.1,0.6-1.8,0.4c-0.6-0.2-1.2-0.6-1.7-1c-0.1-0.1-0.3-0.2-0.4-0.4C386.7,396.8,386.7,396.6,386.9,396.4
																			"/>
																	</g>
																</g>
															</g>
														</g>
													</g>
													<g>
														<g>
															<g>
																<g>
																	<g>
																		<g>
																			<path fill="#263238" d="M390.3,394.1c-0.2,0-0.2,1.5-1.5,2.5s-2.8,0.9-2.8,1.1c0,0.1,0.3,0.3,1,0.3
																				c0.6,0,1.6-0.2,2.4-0.8c0.8-0.6,1.1-1.5,1.1-2.1C390.5,394.4,390.4,394.1,390.3,394.1z"/>
																		</g>
																	</g>
																</g>
															</g>
														</g>
													</g>
												</g>
											</g>
										</g>
										<g>
											<g>
												<g>
													<g>
														<g>
															<path fill="#263238" d="M390.6,380.8c0.1,0.4,1.5,0.2,3.1,0.4c1.6,0.2,2.9,0.6,3.1,0.3c0.1-0.2-0.1-0.5-0.6-0.9
																s-1.3-0.7-2.3-0.8c-1-0.1-1.8,0-2.4,0.3C390.8,380.3,390.5,380.6,390.6,380.8z"/>
														</g>
													</g>
												</g>
											</g>
										</g>
										<g>
											<g>
												<g>
													<g>
														<g>
															<path fill="#263238" d="M378.1,380.4c0.2,0.3,1.2,0,2.3,0c1.1-0.1,2.1,0.2,2.3-0.1c0.1-0.2-0.1-0.5-0.5-0.8
																s-1.1-0.5-1.9-0.5s-1.4,0.3-1.8,0.6C378.2,379.9,378,380.2,378.1,380.4z"/>
														</g>
													</g>
												</g>
											</g>
										</g>
									</g>
								</g>
								<g>
									<g>
										<path fill="#FFBE9D" d="M406.6,386.5c0.7-0.5,1.8-0.3,2.6,0.1c1.8,1,2.7,3.4,2,5.4s-2.8,3.3-4.9,3"/>
									</g>
								</g>
								<g>
									<g>
										<g>
											<path fill="#EB996E" d="M407.2,392.2c0-0.1,0.4,0.1,0.9-0.1s0.9-0.9,0.8-1.7c0-0.8-0.6-1.4-1-1.6
												c-0.5-0.2-0.8-0.1-0.9-0.2c0,0,0.3-0.3,1-0.2c0.3,0.1,0.7,0.3,1,0.6c0.3,0.3,0.5,0.8,0.5,1.3c0.1,1-0.5,1.9-1.2,2
												C407.6,392.5,407.2,392.2,407.2,392.2z"/>
										</g>
									</g>
								</g>
							</g>
						</g>
					</g>
					<g>
						<g>
							<path fill="#455A64" d="M409.9,394.1c0,0,0.2,0.1,0.4,0.3c0.3,0.3,0.7,0.6,1.2,1c1.1,0.9,2.5,2.1,4.2,3.6l0.1,0.1l-0.1,0.1
								c-1.6,1.9-3.3,4.3-5.3,6.7c-0.4,0.6-0.9,1.1-1.3,1.6l-0.4,0.4v-0.6c-0.2-4-0.3-7.5-0.4-10c0-1.2-0.1-2.2-0.1-3
								c0-0.7,0-1.1,0-1.1s0.1,0.4,0.1,1.1c0.1,0.8,0.1,1.8,0.2,3c0.2,2.5,0.3,6,0.5,10l-0.4-0.1c0.4-0.5,0.9-1.1,1.3-1.6
								c2-2.5,3.7-4.8,5.3-6.7v0.3c-1.7-1.5-3.1-2.8-4.1-3.7c-0.4-0.4-0.8-0.8-1.1-1.1C410,394.3,409.9,394.2,409.9,394.1z"/>
						</g>
					</g>
					<g>
						<path fill="#263238" d="M390.1,362c-2.4,0.1-4.8,0.2-7.1,0.8c-2.3,0.6-4.6,1.7-6.2,3.5s-2.4,4.4-1.7,6.7
							c0.7,2.3,3,4.1,5.4,3.8c1.8-0.2,3.5-1.6,5.3-1c1.6,0.5,2.5,2.5,4.2,2.8s3.2-1.2,4.8-1.3c1.9-0.2,3.5,1.4,4.3,3
							c0.8,1.7,1.1,3.6,2,5.2c0.5,1.1,1.4,2.1,2.5,2.4s2.2-0.1,3-0.9c0.8-0.7,1.4-1.7,1.8-2.7c1.8-4.3,1.4-9.5-1-13.5
							s-6.7-6.8-11.3-7.3"/>
					</g>
					<g>
						<g>
							<path fill="#E8505B" d="M414,372.4c-0.1,0-0.3-0.8-0.9-2s-1.6-2.8-3.1-4.1c-1.5-1.4-3.2-2.2-4.4-2.7
								c-1.3-0.5-2.1-0.6-2.1-0.7c0,0,0.2,0,0.6,0s0.9,0.2,1.6,0.4c1.3,0.4,3,1.3,4.6,2.7c1.6,1.4,2.6,3.1,3.1,4.3
								c0.3,0.6,0.4,1.2,0.5,1.5C414,372.2,414,372.4,414,372.4z"/>
						</g>
					</g>
					<g>
						<g>
							<path fill="#455A64" d="M421.5,358.1c0,0.1-0.9-0.5-2.4-0.7c-1.5-0.3-3.7-0.2-5.7,0.9c-2.1,1-3.5,2.6-4.4,3.9
								c-0.9,1.2-1.3,2.1-1.4,2.1c0,0,0.1-0.2,0.2-0.6c0.2-0.4,0.5-1,0.9-1.6c0.9-1.3,2.3-3,4.5-4.1s4.5-1.1,6-0.8
								c0.8,0.2,1.4,0.4,1.7,0.6C421.3,357.9,421.5,358,421.5,358.1z"/>
						</g>
					</g>
					<g>
						<g>
							<path fill="#455A64" d="M412,369.6c0,0,0.1,0.8,0,2s-0.5,2.9-1.2,4.7c-0.8,1.8-1.8,3.2-2.6,4.1c-0.8,0.9-1.4,1.4-1.5,1.4
								c-0.1-0.1,2.2-2.2,3.6-5.7C411.9,372.7,411.9,369.5,412,369.6z"/>
						</g>
					</g>
					<g>
						<g>
							<path fill="#455A64" d="M412.3,369.8c0,0,0.1,0.2,0.2,0.6s0.3,0.9,0.4,1.6c0.2,1.4,0.3,3.4-0.3,5.5c-0.5,2.1-1.5,3.8-2.4,4.9
								c-0.4,0.6-0.8,1-1.1,1.2c-0.3,0.3-0.5,0.4-0.5,0.4c-0.1-0.1,0.6-0.7,1.3-1.8c0.8-1.1,1.7-2.8,2.2-4.8s0.5-3.9,0.4-5.3
								C412.5,370.6,412.3,369.8,412.3,369.8z"/>
						</g>
					</g>
				</g>
			</g>
			<g>
				<g>
					<path fill="#EBEBEB" d="M438.1,372c-2.5,0.8-3.5,4.3-1.9,6.3s5.3,1.7,6.6-0.5s-0.3-5.6-2.8-6"/>
				</g>
				<g>
					<path fill="#EBEBEB" d="M449.5,355.3c-2.8,0.9-4.1,4.9-2.2,7.3c1.9,2.3,6.1,2,7.6-0.6s-0.3-6.4-3.3-6.8"/>
				</g>
				<g>
					<g>
						<path fill="#F5F5F5" d="M474.1,281.7c-7.7-0.6-15.5,1.1-20.7,6.7c-5.3,5.6-7.8,13.7-6.6,21.4c-8.2,3.4-12.6,13.8-9.5,22.1
							c3.2,8.3,13.5,13,21.8,10.1c3.8,9.5,12.8,16.7,22.9,18.4c10.1,1.6,20.9-2.5,27.4-10.3c8,1.8,17,1.7,23.8-3
							c6.7-4.7,9.8-15.1,4.7-21.5c9.2-2.3,13.9-13.8,11.2-22.9s-10.9-15.6-19.7-19.3c-5.8-2.4-13-3.7-17.9,0.2
							c-4-6.1-11-10.1-18.2-10.4C485.9,272.6,478.5,276,474.1,281.7"/>
					</g>
					<g>
						<g>
							<path fill="#263238" d="M474.1,281.7c0,0,0.2-0.2,0.5-0.6s0.8-0.9,1.5-1.6c1.4-1.4,3.6-3.3,7.1-4.8c1.7-0.7,3.7-1.4,6-1.7
								c2.3-0.3,4.8-0.3,7.4,0.2s5.4,1.6,8,3.2c2.6,1.7,5,3.9,6.9,6.8h-0.2c2-1.5,4.6-2.4,7.3-2.5s5.5,0.4,8.2,1.3s5.4,2.2,8,3.7
								s5.2,3.4,7.4,5.6c2.3,2.2,4.3,4.9,5.7,7.9c0.7,1.5,1.3,3.1,1.6,4.8c0.3,1.7,0.5,3.4,0.3,5.2c-0.2,3.5-1.3,7-3.3,10
								c-1,1.5-2.2,2.9-3.7,4s-3.2,1.9-5,2.4l0.1-0.3c1.1,1.4,1.9,3.1,2.3,4.9c0.4,1.8,0.4,3.6,0.1,5.5c-0.6,3.6-2.4,7.1-5.1,9.8
								c-2.7,2.7-6.3,4.3-10.1,5.2c-3.8,0.8-7.8,0.8-11.6,0.3c-1.4-0.2-2.8-0.5-4.2-0.7l0.2-0.1c-7.1,8.5-18.6,12.3-28.7,10.2
								c-5.1-1-9.7-3.4-13.5-6.6s-6.7-7.3-8.4-11.7l0.3,0.1c-4.8,1.7-10.1,0.8-14.3-1.5c-4.2-2.3-7.3-6.2-8.3-10.6
								s-0.2-8.9,1.7-12.5c1.9-3.6,5-6.4,8.4-7.9l-0.1,0.2c-0.5-3.5-0.2-7,0.5-10.1c0.8-3.1,2.1-5.9,3.7-8.2
								c0.8-1.2,1.7-2.2,2.5-3.2c0.9-0.9,1.9-1.8,2.8-2.5c2-1.4,4-2.3,5.9-2.9c3.8-1.2,6.9-1.3,8.9-1.3
								C473,281.5,474.1,281.7,474.1,281.7s-0.3,0-0.8,0s-1.3-0.1-2.3-0.1c-2,0-5.1,0.2-8.9,1.4c-1.9,0.6-3.9,1.5-5.8,3
								c-1,0.7-1.9,1.5-2.8,2.5s-1.7,2-2.5,3.2c-1.6,2.3-2.8,5.1-3.6,8.2c-0.8,3.1-1,6.5-0.5,10v0.1h-0.1c-3.4,1.4-6.4,4.2-8.2,7.8
								c-1.9,3.6-2.7,8-1.7,12.2c1,4.3,4.1,8.1,8.2,10.3c4.1,2.3,9.2,3.1,13.9,1.4l0.2-0.1l0.1,0.2c1.7,4.3,4.6,8.3,8.3,11.5
								c3.7,3.2,8.3,5.5,13.3,6.5c10,2,21.4-1.7,28.3-10.1l0.1-0.1h0.1c1.4,0.3,2.8,0.6,4.2,0.7c3.9,0.5,7.8,0.5,11.5-0.3
								s7.3-2.4,9.9-5.1c2.6-2.6,4.4-6,5-9.6c0.6-3.5-0.2-7.3-2.3-10l-0.2-0.3l0.3-0.1c1.8-0.5,3.4-1.3,4.9-2.3
								c1.5-1.1,2.6-2.4,3.6-3.9c2-2.9,3-6.4,3.3-9.8c0.1-1.7,0-3.4-0.3-5.1c-0.3-1.6-0.9-3.2-1.6-4.7c-1.4-3-3.4-5.6-5.7-7.8
								c-2.2-2.2-4.8-4-7.4-5.6c-2.6-1.5-5.3-2.8-8-3.7c-2.7-0.9-5.4-1.4-8.1-1.3c-2.6,0.1-5.2,0.9-7.1,2.4l-0.1,0.1l-0.1-0.1
								c-1.8-2.8-4.2-5.1-6.8-6.7c-2.6-1.6-5.3-2.7-7.9-3.2c-2.6-0.6-5.1-0.5-7.4-0.3c-2.3,0.3-4.3,0.9-6,1.6
								c-3.4,1.5-5.7,3.3-7.1,4.7c-0.7,0.7-1.2,1.2-1.5,1.6C474.3,281.5,474.1,281.7,474.1,281.7z"/>
						</g>
					</g>
				</g>
				<g>
					<g>
						<ellipse fill="#455A64" cx="493" cy="308.2" rx="33.7" ry="0.7"/>
					</g>
				</g>
				<g>
					<g>
						<ellipse fill="#455A64" cx="493" cy="315.5" rx="33.7" ry="0.7"/>
					</g>
				</g>
				<g>
					<g>
						<ellipse fill="#455A64" cx="493" cy="322.8" rx="33.7" ry="0.7"/>
					</g>
				</g>
				<g>
					<g>
						<ellipse fill="#455A64" cx="493" cy="330.1" rx="33.7" ry="0.7"/>
					</g>
				</g>
			</g>
		</g>
	</g>
</g>
</svg>
